# xmcd
#
# Track frame offsets: 
#        150
#        20027
#        38759
#        60439
#        79043
#        97271
#        114825
#        138866
#        155858
#        180429
#        196184
#        215614
#        232821
#        250224
#        273031
#        293812
#        314606
#        327997
#
# Disc length: 4636 seconds
#
# Revision: 0
# Processed by: cddbd v1.5.2PL0 Copyright (c) Steve Scherf et al.
# Submitted via: ExactAudioCopyFreeDBPlugin 1.0
#
DISCID=f8121a12
DTITLE=Safet Isović - Iz Bosanske sehare 15
DYEAR=1900
DGENRE=Ethnic
TTITLE0=Gazi Husrev'beg
TTITLE1=Sarajevski dućani
TTITLE2=U Stambolu na Bosforu
TTITLE3=Latif aga
TTITLE4=Fatima
TTITLE5=Mostarski dućani
TTITLE6=Tebi, majko
TTITLE7=Višegrade grade
TTITLE8=Halima
TTITLE9=Aman
TTITLE10=Rijeko Bosno
TTITLE11=Vratnik pjeve
TTITLE12=U Trebinju gradu
TTITLE13=Jahao sam konje
TTITLE14=Divno Sarajevo
TTITLE15=Čempres viti
TTITLE16=Svukud kiša
TTITLE17=Od sabaha do akšama
EXTD=
EXTT0=
EXTT1=
EXTT2=
EXTT3=
EXTT4=
EXTT5=
EXTT6=
EXTT7=
EXTT8=
EXTT9=
EXTT10=
EXTT11=
EXTT12=
EXTT13=
EXTT14=
EXTT15=
EXTT16=
EXTT17=
PLAYORDER=
